<svg xmlns="http://www.w3.org/2000/svg" xmlns:xlink="http://www.w3.org/1999/xlink" width="110.458" height="25.56" viewBox="0 0 110.458 25.56">
    <defs>
        <style>.a,.b{fill:none;}.b{stroke:#707070;}.c{clip-path:url(#a);}.d{fill:#00446a;}.e{fill:url(#d);}.f{clip-path:url(#e);}.g{clip-path:url(#i);}.h{fill:#00c2a4;}.i{fill:#00a396;}.j{filter:url(#j);}.k{filter:url(#f);}.l{filter:url(#b);}</style>
        <clipPath id="a">
            <path class="a" d="M3837.2-4947.071h-5.984l9.271-15.459,2.789,4.9Z" transform="translate(-3831.212 4962.53)" />
        </clipPath>
        <filter id="b" x="7.033" y="-0.584" width="38.91" height="36.088" filterUnits="userSpaceOnUse">
            <feOffset dy="3" input="SourceAlpha" />
            <feGaussianBlur stdDeviation="3" result="c" />
            <feFlood flood-opacity="0.161" />
            <feComposite operator="in" in2="c" />
            <feComposite in="SourceGraphic" />
        </filter>
        <linearGradient id="d" x1="0.5" x2="0.5" y2="1.42" gradientUnits="objectBoundingBox">
            <stop offset="0" stop-color="#09caaa" />
            <stop offset="0.251" stop-color="#00c2a4" />
            <stop offset="0.469" stop-color="#00c2a4" />
            <stop offset="0.728" stop-color="#008287" />
            <stop offset="0.833" stop-color="#007580" />
            <stop offset="1" stop-color="#004d6e" />
        </linearGradient>
        <clipPath id="e">
            <path class="b" d="M3868.3-4949.815l-3.378,5.9-5.754.6-.681-5.238,12.832-20.321,10.161,12.308-3.09,5.657-2.671,1.1Z" transform="translate(-3858.485 4968.88)" />
        </clipPath>
        <filter id="f" x="-5.08" y="-0.91" width="44.12" height="45.153" filterUnits="userSpaceOnUse">
            <feOffset dy="3" input="SourceAlpha" />
            <feGaussianBlur stdDeviation="3" result="g" />
            <feFlood flood-opacity="0.161" />
            <feComposite operator="in" in2="g" />
            <feComposite in="SourceGraphic" />
        </filter>
        <clipPath id="i">
            <path class="b" d="M3837.2-4947.079h-5.984l9.271-15.451,2.789,4.9Z" transform="translate(-3831.212 4962.529)" />
        </clipPath>
        <filter id="j" x="-10.351" y="-1.004" width="38.91" height="36.088" filterUnits="userSpaceOnUse">
            <feOffset dy="3" input="SourceAlpha" />
            <feGaussianBlur stdDeviation="3" result="k" />
            <feFlood flood-opacity="0.161" />
            <feComposite operator="in" in2="k" />
            <feComposite in="SourceGraphic" />
        </filter>
    </defs>
    <g transform="translate(-945 -721.445)">
        <g transform="translate(945 721.445)">
            <g class="c" transform="translate(17.384 3.932)">
                <g transform="translate(-1.351 1.485)">
                    <g class="l" transform="matrix(1, 0, 0, 1, -16.03, -5.42)">
                        <path class="d" d="M-1053.427,179.111l-10.506,18.088h20.91l-5.712-10h-4.692l3.552,6.08-1.07-.2h-6.353l.879-.714,5.236-9.282Z" transform="translate(1079.97 -173.69)" />
                    </g>
                    <path class="e" d="M-1053.427,179.111l-10.506,18.088h20.91l-5.712-10h-4.692l4.862,8.432-2.38-2.55h-8.942l3.468-.714,5.236-9.282Z" transform="translate(1063.933 -179.111)" />
                </g>
            </g>
            <g class="f" transform="translate(1.262)">
                <g transform="translate(28.778 14.134) rotate(120)">
                    <g class="k" transform="matrix(-0.5, -0.87, 0.87, -0.5, 2.78, 33.08)">
                        <path class="d" d="M10.4,0,20.91,18.088H0l5.712-10H10.4l-3.552,6.08,1.07-.2h6.353L13.4,13.26,8.16,3.978Z" transform="translate(30.04 14.13) rotate(120)" />
                    </g>
                    <path class="e" d="M10.4,0,20.91,18.088H0l5.712-10H10.4L5.542,16.524l2.38-2.55h8.942L13.4,13.26,8.16,3.978Z" transform="translate(0 0)" />
                </g>
            </g>
            <g transform="translate(0 0.516)">
                <g class="g" transform="translate(0 2.996)">
                    <g transform="translate(-1.351 1.484)">
                        <g class="j" transform="matrix(1, 0, 0, 1, 1.35, -5)">
                            <path class="d" d="M-1053.427,179.111l-10.506,18.088h20.91l-5.712-10h-4.692l3.552,6.08-1.07-.2h-6.353l.879-.714,5.236-9.282Z" transform="translate(1062.58 -174.12)" />
                        </g>
                        <path class="e" d="M-1053.427,179.111l-10.506,18.088h20.91l-5.712-10h-4.692l4.862,8.432-2.38-2.55h-8.942l3.468-.714,5.236-9.282Z" transform="translate(1063.933 -179.111)" />
                    </g>
                </g>
                <path class="h" d="M3881.692-4972.792l2.169,4.005,2.384-4.005-2.265-4.022Z" transform="translate(-3872.205 4976.814)" />
            </g>
        </g>
        <path class="i" d="M-36.75,0V-6.343h1.538V0Zm6.615,0V-6.343h1.062l5.383,4.211V-6.343h1.4V0H-23.36l-5.369-4.277V0Zm16.708-5.208V0h-1.545V-5.208h-3.062V-6.343h7.676v1.135ZM-6.108,0V-6.343H.7v1.121H-4.548v1.384h3.054v1.091H-4.548v1.56H.776V0ZM11.479-5.178H6.652v3.962h4.827V-2.563H8.959V-3.691h4.036V-1.5a1.6,1.6,0,0,1-.341,1.187A1.979,1.979,0,0,1,11.347,0H6.754A1.979,1.979,0,0,1,5.447-.315,1.6,1.6,0,0,1,5.106-1.5V-4.849a1.585,1.585,0,0,1,.341-1.179,1.979,1.979,0,0,1,1.307-.315h4.592a2.016,2.016,0,0,1,1.3.308,1.452,1.452,0,0,1,.344,1.113v.168L11.479-4.5Zm11.464-.073h-3.53v1.758h3.53a.942.942,0,0,0,.553-.117.472.472,0,0,0,.15-.4v-.732a.472.472,0,0,0-.15-.4A.942.942,0,0,0,22.942-5.251ZM17.889,0V-6.343H23.6a1.785,1.785,0,0,1,1.135.289,1.152,1.152,0,0,1,.352.941v1.494a1.131,1.131,0,0,1-.352.93A1.8,1.8,0,0,1,23.6-2.4H22.73L25.748,0H23.528L20.87-2.4H19.412V0ZM28.92,0l3.765-6.343h1.487L38,0H36.259l-.8-1.392h-4.2L30.466,0Zm3-2.549h2.908L33.352-5.193Z" transform="translate(1017.463 738.225)" />
    </g>
</svg>